Simulation
nRows=40
nColumns=15
endheader
time  TH_x TH_y TH_z SC_y  SC_z  SC_x  AC_y  AC_z  AC_x  GH_y  GH_z  GH_yy  EL_x  PS_y
1.55  0.000000  0.000000  0.000000  -33.149874032516074  6.050423621413763  29.640772621032678  55.11471366150231  5.629365063123873  -10.87227070695031  22.288359465170167  54.53914566285827  -21.03171785301548  17.93676532287664  0.000000
1.581  0.000000  0.000000  0.000000  -33.59461759479507  6.395380761637162  30.66640333832865  55.21310599188839  5.3716971355654435  -10.710030192512745  22.0587317137448  54.933633448116666  -21.010544675716737  17.900437746414024  0.000000
1.612  0.000000  0.000000  0.000000  -33.990228536194124  6.6903047132776186  31.48373919862667  55.33159438414988  5.156636022415302  -10.497697875424949  21.789290121880807  55.31516133421278  -20.919117783372347  17.875596736791756  0.000000
1.643  0.000000  0.000000  0.000000  -34.32533326246846  6.910822763705093  32.10575060949063  55.45428375532675  5.015205872318878  -10.283601043439399  21.508699284160087  55.66133503336455  -20.811739639792883  17.876975468009604  0.000000
1.674  0.000000  0.000000  0.000000  -34.62297345330799  7.0634204829264355  32.56955687442409  55.57675167328498  4.943889608349357  -10.083327409469396  21.256370316413317  55.93948253961469  -20.725947204694037  17.90237178889169  0.000000
1.705  0.000000  0.000000  0.000000  -34.91024851909692  7.168847566707435  32.9157727522976  55.6944947077276  4.925187039910153  -9.89658124590168  21.075942323295088  56.11543682214124  -20.670575096267786  17.93957346400501  0.000000
1.736  0.000000  0.000000  0.000000  -35.19190975489581  7.241068575361226  33.173764991947536  55.80037855794926  4.939207138540103  -9.73239254268538  20.99936461396625  56.16844982722644  -20.64150429071889  17.97762564315962  0.000000
1.767  0.000000  0.000000  0.000000  -35.44335357119908  7.283548318243644  33.35286594738279  55.882710128517566  4.960273322124412  -9.6144357998533  21.035992338839232  56.10275824127303  -20.633623603023295  18.010762883359828  0.000000
1.798  0.000000  0.000000  0.000000  -35.62038567270064  7.293258839192095  33.443359907107194  55.92492978721499  4.961275824294244  -9.577579686022862  21.177560566608985  55.94360551650152  -20.645164845736176  18.036922941937114  0.000000
1.829  0.000000  0.000000  0.000000  -35.6827896263376  7.264599088513639  33.43056902578883  55.91147838238282  4.922509324110904  -9.651862009550838  21.40978463692902  55.717505633583286  -20.68082631554665  18.055206007018995  0.000000
1.8599999999999999  0.000000  0.000000  0.000000  -35.61422281615477  7.190503990672915  33.31240717011345  55.84212304427545  4.837065719801207  -9.849238127800911  21.716269633588656  55.4330147073952  -20.763484114341356  18.064768092002055  0.000000
1.891  0.000000  0.000000  0.000000  -35.425499255847114  7.059630515037633  33.106306043061075  55.73657826059565  4.709871526843518  -10.160935735903411  22.078599576120865  55.07715900173183  -20.93193610966342  18.065974221804066  0.000000
1.922  0.000000  0.000000  0.000000  -35.1393492026279  6.860553759744778  32.83843987563876  55.623954336501555  4.550369976900982  -10.568423351785219  22.476807450428975  54.62917139345279  -21.224628831217522  18.06109808523362  0.000000
1.953  0.000000  0.000000  0.000000  -34.780355184369945  6.588606369264495  32.52761713921673  55.52757718566551  4.364257339381618  -11.04859658663029  22.89431930322897  54.075138564029345  -21.64612714448326  18.057194723928934  0.000000
1.984  0.000000  0.000000  0.000000  -34.385878794115314  6.2561838541277135  32.15776156649469  55.467241046933616  4.146890801098143  -11.555067990930118  23.317168485678675  53.4261046922325  -22.14865770401658  18.063805048883463  0.000000
2.015  0.000000  0.000000  0.000000  -34.00304175034524  5.894161560159021  31.67671138745715  55.462017484575554  3.8845990468083045  -12.01068099462514  23.716871652504512  52.71578725603986  -22.644817247757253  18.089783277078823  0.000000
2.046  0.000000  0.000000  0.000000  -33.66221680427597  5.528271211647755  31.03748020352076  55.5163319278332  3.578381630238004  -12.351893406029722  24.066107949972697  51.970546809753465  -23.054676623815148  18.141141611402283  0.000000
2.077  0.000000  0.000000  0.000000  -33.36483227965528  5.165156581789592  30.217476501567248  55.610887178998944  3.264077284094991  -12.553951237415529  24.363106652535823  51.193300411594365  -23.340259036964692  18.219692857419666  0.000000
2.108  0.000000  0.000000  0.000000  -33.0942943904886  4.797575700426689  29.218255666594256  55.71910357870303  2.9921424376567773  -12.626354441000519  24.62087195306943  50.37799070119865  -23.511111169917598  18.32302591566537  0.000000
2.139  0.000000  0.000000  0.000000  -32.839920854351625  4.415070043737814  28.061096389089588  55.82470549328353  2.794654046535374  -12.589584615813775  24.84877379114595  49.52392414375094  -23.595272472727313  18.44339769027344  0.000000
2.17  0.000000  0.000000  0.000000  -32.60097444527017  4.014505972797685  26.772285601277133  55.92052718041101  2.6795888320548626  -12.462365006085127  25.050565546795635  48.63691305086464  -23.61941614533365  18.57140554653685  0.000000
2.201  0.000000  0.000000  0.000000  -32.37640223232901  3.5974101668306755  25.37626143311611  55.99803491713209  2.640385210564369  -12.262055420612123  25.225160288241895  47.723387946521385  -23.5977410401169  18.69971908157962  0.000000
2.232  0.000000  0.000000  0.000000  -32.16358599308454  3.165643779334276  23.894232034005995  56.048936667167645  2.6638544555055033  -12.006278531896399  25.370900961456986  46.789238211590124  -23.535745834069157  18.823142303083134  0.000000
2.263  0.000000  0.000000  0.000000  -31.96000533759204  2.7239666344425455  22.34545125173297  56.06483983467247  2.7360306391359006  -11.707041011079895  25.48856002353979  45.837992430232994  -23.43412191779987  18.93917430867472  0.000000
2.294  0.000000  0.000000  0.000000  -31.76206545909179  2.276828005969787  20.752051282859657  56.04292929201849  2.8480570872420303  -11.374691406520142  25.58226300675937  44.87048206945467  -23.29121730066355  19.044224488494333  0.000000
2.325  0.000000  0.000000  0.000000  -31.568704995902124  1.8276850347114009  19.1429201350572  55.9850875275608  2.991906789706411  -11.020292449318585  25.658619925841265  43.88701895346373  -23.10273478995955  19.1357818268455  0.000000
2.356  0.000000  0.000000  0.000000  -31.38477179842478  1.3824684388697979  17.549486963281566  55.89812853072398  3.1586845286425995  -10.653146623816408  25.72636135621367  42.88531878714829  -22.865952722718646  19.212909422149966  0.000000
2.387  0.000000  0.000000  0.000000  -31.213200150678876  0.9469719717149954  15.996117109517723  55.78720274800193  3.338519707939191  -10.281441552182322  25.790835852882378  41.86303807683436  -22.581137009488565  19.276646403108554  0.000000
2.418  0.000000  0.000000  0.000000  -31.053283543932583  0.5285483770672448  14.497899271902295  55.65319388735721  3.5202889707346605  -9.909912471427647  25.855319865579304  40.81482849542687  -22.252366822286177  19.330044451403417  0.000000
2.449  0.000000  0.000000  0.000000  -30.901892768029665  0.13610689912982488  13.059386926857382  55.49321215000593  3.694592212819603  -9.539919346067807  25.921528608771425  39.734634353983104  -21.886468996852646  19.37773211760035  0.000000
2.48  0.000000  0.000000  0.000000  -30.75704357677916  -0.22543727465336458  11.681667310195628  55.30585947069021  3.8602311312864175  -9.171317680038602  25.992630287965092  38.613764749146476  -21.49395779541049  19.423396304408858  0.000000
2.511  0.000000  0.000000  0.000000  -30.619261152384965  -0.5567265818576888  10.366074232295482  55.097003885601254  4.021869853496877  -8.806580581448515  26.072031437877722  37.44718131299379  -21.093443803087226  19.46780070272417  0.000000
2.542  0.000000  0.000000  0.000000  -30.493787735640467  -0.8630539649246343  9.120547763751516  54.878079152187496  4.187600161900342  -8.449725071438692  26.165842620478816  36.23003100246072  -20.706881443964345  19.511374562626294  0.000000
2.573  0.000000  0.000000  0.000000  -30.385519627058212  -1.1486657498527675  7.95371604878325  54.664050782974066  4.36155262480744  -8.105762174483402  26.27911110571063  34.963181823058875  -20.35692326884604  19.55300303596752  0.000000
2.604  0.000000  0.000000  0.000000  -30.295755230129405  -1.4114338921879863  6.873314446849723  54.461675324169676  4.542093443739009  -7.77456179620446  26.41855993639891  33.64709753987786  -20.05358627434969  19.59394145239354  0.000000
2.635  0.000000  0.000000  0.000000  -30.217170534619676  -1.6414915477882919  5.877859832776369  54.2718289386881  4.722097291984768  -7.452354122430864  26.589543806551657  32.28693248799343  -19.794850987113016  19.632842449444944  0.000000
2.666  0.000000  0.000000  0.000000  -30.13975026881466  -1.8276358114666686  4.961880760883712  54.08662897993208  4.894602411304698  -7.130739623780494  26.796075533680092  30.886040424798733  -19.56785845313063  19.671714760789193  0.000000
2.697  0.000000  0.000000  0.000000  -30.05624411288946  -1.964296667197256  4.113498670639621  53.90388178097112  5.056879642714966  -6.805107980208507  27.03864772862025  29.455309558983163  -19.35815705534022  19.70915967154673  0.000000
2.7279999999999998  0.000000  0.000000  0.000000  -29.96647065050995  -2.05719322226605  3.3232306972177383  53.718236251033424  5.2101254893087035  -6.475767662619377  27.312878057843005  28.009543110374555  -19.151024938225593  19.75052971382481  0.000000
2.759  0.000000  0.000000  0.000000  -29.876733027010218  -2.1194386653747572  2.581765300361264  53.533583847974974  5.359113186581612  -6.151415988253472  27.613299205080576  26.571000677420344  -18.931906042812514  19.796735790528693  0.000000
